<?xml version="1.0" encoding="UTF-8"?>
<svg id="Layer_6" data-name="Layer 6" xmlns="http://www.w3.org/2000/svg" viewBox="0 0 91.49 64.7">
  <defs>
    <style>
      .cls-1 {
        fill: #fff;
      }

      .cls-2 {
        fill: #ffb922;
      }
    </style>
  </defs>
  <path class="cls-2" d="m91.38,41.44s0-.05,0-.07c.04-.24.14-.75.3-1.55l.03-.62c0-.84-.08-1.55-.23-2.15,0-.06,0-.11,0-.17v-.44l-.03-.3c-.09-.44-.21-1.02-.47-1.51-.16-.91-.71-1.74-1.62-2.47l-.29-.24-.02-.75-1.73.22c-.31.04-.59.08-.84.12-.13.02-.25-.02-.35-.1-.38-.3-.89-.51-1.56-.58h-.16c-.14,0-.28,0-.42.04-.51-.11-.99-.16-1.46-.16h-1.76l-.48.29c-.07-.01-.15-.03-.24-.04l-.68-.13-.41.32h-1.79l.66-.31v.22l1.95-.54c1.34-.37,1.93-.52,2.19-.57.05-.01.1-.01.14,0l2.44.27v-.3h.11v-1.54c0-.09,0-.19-.01-.27l.13-.26-.19-.6c-.46-1.44-.48-1.88-.48-1.96v-.85s0-.05,0-.07c.15-.99.34-1.8.56-2.43l.09-.25v-.27c0-.28-.03-.44-.33-1.21h0c0-.28-.03-.53-.09-.76.04-.47.07-.94.08-1.41,0-.06.02-.12.05-.18.26-.53.42-1,.48-1.44,0-.03.01-.07.03-.1l1.33-3.1v-.32h.36l.18-1.34c.21-1.58.38-2.47.5-2.97h.28l.29-1.18c.11-.46.21-.8.29-1.06.06-.18.23-.3.42-.3h.54v-2.13l-.16-.33c-.51-1.03-1.29-1.18-1.71-1.18h-1.1c-.25,0-.54.04-1.1.23-.04,0-.08,0-.12,0h-.22l-.25.02-.75-.46h-.65l-.28.03c-.7.13-1.23.63-1.59,1.47l-.12.28v.31c0,.13.01.27.05.41v.05c-.08.33-.14.59-.19.8l-.48-1.17c.04-.1.07-.19.09-.26l.08-.23v-1.46c0-.25-.2-.44-.44-.44h-1.1c-.22,0-.43.04-.63.11h-.03c-.1,0-.2,0-.31.03l-.46-.03c-.76,0-1.46.25-2.03.71-.07-.02-.1-.03-.1-.04v-.67h-1.88c-.15,0-.3.01-.44.04-.14-.03-.29-.04-.44-.04h-.29l-.18.05c-.31.08-.8.2-1.24.45-.18-.03-.42-.07-.73-.13l-1.84-.37v.47c-.17-.01-.32-.02-.45-.02h-1.22v-.33h-2.78l-.23.32c-.13.02-.33.06-.64.08-.09-.04-.18-.08-.28-.11l-.24-.08h-.25s-.02,0-.04,0l-.16-.28-1.06.19c-1.15.2-1.61.28-1.79.31-.02,0-.04,0-.07,0h-1.41c-.41-.21-.88-.34-1.42-.34-.07,0-.15,0-.25.02-.25-.11-.55-.19-.91-.23l-.15-.02-.15.02c-1.02.1-2.02.2-2.79.45-.08-.06-.17-.13-.28-.22l-.54-.44-.85.15-.46-.23-.68.34s-.13.06-.3.1c-.43-.11-.86-.13-1.15-.15h-.2s-.32.05-.32.05c-.15-.04-.3-.06-.45-.06-.71,0-1.21.42-1.66.96-.17.2-.47.22-.66.03-.49-.49-1.19-.77-2.02-.77-.07,0-.15,0-.25.02-.25-.11-.55-.19-.91-.23l-.15-.02-.15.02c-1.02.1-2.02.2-2.79.45-.08-.06-.17-.13-.28-.22l-.54-.44-.85.15-.46-.23-.68.34s-.13.06-.3.1c-.43-.11-.86-.13-1.15-.15h-.2s-.32.05-.32.05c-.15-.04-.3-.06-.45-.06-.64,0-1.12.35-1.54.81-.13.15-.35.19-.52.1-.67-.36-1.62-.55-2.69-.77l-.31-.03c-.24,0-.53.03-.93.09-.03,0-.06,0-.09,0-1.36-.07-2.19-.1-2.63-.1l-.32.03c-.11-.02-.22-.03-.34-.03-.18,0-.57.03-.98.26l-.39-.15h-.3c-.2,0-.39.02-.58.07l-.26-.04-1.79-.02s-.03,0-.04,0l-.89.07s-.08,0-.13-.01c-.15-.04-.32-.06-.5-.06h-.68c-.17,0-.32.1-.4.25l-.51,1.03-.07-.05-.02-.75-1.73.22c-.31.04-.59.08-.84.12-.13.02-.25-.02-.35-.1-.38-.3-.89-.51-1.56-.58h-.16c-.14,0-.28,0-.42.04-.51-.11-1-.16-1.46-.16h-1.76l-.48.29c-.07-.01-.15-.02-.24-.04l-.68-.13-.41.32h-2.06v.73s0,.07-.01.11l-.17.67c-.17.68-.3,1.15-.39,1.48h-.54v1.54c0,.43-.03,1.02-.1,1.74v.14c0,.15,0,.46.09,1.58,0,.03,0,.06,0,.09-.18,1.62-.21,2.16-.21,2.42v.54l.3.38s.05.13.08.31c-.04.14-.05.28-.05.43,0,.81.53,1.41,1.64,2.38l.17.15.21.09c.24.11.43.2.6.28.16.07.25.23.25.4v.54l.14-.02c-.33.75-.67,1.43-1.02,2.03-.04.07-.09.12-.16.15-.95.55-1.83,1.77-1.83,4.38v.57c.08.89.19,2.07.72,2.81.66,1.58,3.15,1.82,4.16,1.89.03,0,.06,0,.09.02.55.19,1.19.26,1.7.32l.22.02,1.33-.23c.27.03.43.07.51.09l.32.34h1.25l.33-.16c.51-.25.81-.39.97-.46.06-.02.11-.04.17-.04h.54l.46-.7c.18-.28.31-.47.4-.58.04-.02.07-.05.1-.07v1.71h-.34l-2.25,1.25.02.18s-.06-.06-.1-.09l-.29-.24-.02-.75-1.73.22c-.31.04-.59.08-.84.12-.13.02-.25-.02-.35-.1-.38-.3-.89-.51-1.56-.58h-.16c-.14,0-.28,0-.42.04-.51-.11-.99-.16-1.46-.16h-1.76l-.48.29c-.07-.01-.15-.03-.24-.04l-.68-.13-.41.32H1.32v.73s0,.07-.01.11l-.17.67c-.17.68-.3,1.15-.39,1.48H.22v1.54c0,.43-.03,1.02-.1,1.74v.14c0,.15,0,.46.09,1.58,0,.03,0,.06,0,.09-.18,1.62-.21,2.16-.21,2.42v.54l.3.38s.05.13.08.31c-.04.14-.05.28-.05.43,0,.81.53,1.41,1.64,2.38l.17.15.21.09c.24.11.43.2.6.28.16.07.25.23.25.4v.54l.14-.02c-.33.75-.67,1.43-1.02,2.03-.04.07-.09.12-.16.15-.95.55-1.83,1.77-1.83,4.38v.57c.08.89.19,2.07.71,2.81.66,1.58,3.14,1.82,4.15,1.89.03,0,.06,0,.09.02.55.19,1.19.26,1.71.32l.21.02,1.33-.23c.27.03.43.07.51.09l.32.34h1.25l.33-.16c.51-.25.8-.39.97-.46.06-.02.11-.04.17-.04h.54l.46-.7s.05-.08.08-.12c.41,1.12,1.99,1.22,2.9,1.27l.37.02.34-.15c.08-.03.27-.11.7-.21h.34c.19,0,.38-.02.55-.06v.5h1.54c.33,0,.6-.05.83-.14.58-.08,1.01-.32,1.33-.63.16-.16.41-.19.59-.04l1.55,1.22c.12.1.29.12.44.06l.59-.23c.1-.04.2-.08.29-.11h1.12c.33,0,.66-.07.99-.2.16.01.33.04.5.07l.32.06.32-.08c.11-.03.3-.06.62-.06h1.1c.25,0,.44-.2.44-.44v-1.68c0-.09-.03-.18-.08-.26l-1.03-1.44c-.04-.05-.07-.11-.08-.18-.04-.27-.09-.68-.13-1.28,0-.02,0-.04,0-.06,0-.11.03-.4.1-1.13v-.1s0-.1,0-.1c-.01-.31-.07-.62-.19-.91l-.04-.77c-.05-.97-.1-1.59-.14-2,0-.06,0-.12.02-.17.14-.44.19-.9.23-1.22l.06-.5-.16-.28c0-.28.05-.7.14-1.3l.47.24c.1.53.3,1.26.67,2.3l-.03.06.03.41c.13,1.63.32,3.08.57,4.31l-.03.43c0,.1,0,.19.06.62l-.03.37-.55,1.88h1c.01.07.03.14.04.22l-.2,1.2c-.03.19.06.38.24.47l1.18.59c.06.03.13.05.2.05h1.2c.08,0,.16.02.23.07.57.34,1.03.49,1.48.49h1.54v-.45c1.25-.12,1.88-1.26,1.88-3.41l-.07-.5c.05-.2.07-.34.07-.5v-.38l-.03-.05.4-1.82.14-.27-.06-.11.25-1.11h-.38v-.72c.27-.42.5-.9.68-1.42l.21-.59-.18-.39c.18-1.37.38-1.98.49-2.24l.07-.17.03-.18c.63-3.66.91-5.41,1.03-6.28.05,1.63.2,2.76.52,3.55-.13.31-.2.62-.2.92,0,.61-.04,2.05-.11,4.26l-.02.54.09.13c-.08.25-.14.53-.18.83l-.04.32.21.73c.02.05.02.11.02.16-.06.7-.09,1.32-.09,1.87v.83s0,.08-.02.12c-.37,1.35-.43,1.83-.43,2.14v.29l.17.42c-.05.21-.15.56-.33,1.16l-.07.22h0c0,1.22.99,2.21,2.21,2.21h.44s.06,0,.09,0l1.42-.29c.05-.01.1-.01.15,0l.81.12.35.18.55-.33h.85c.23.09.45.11.61.11h.46l.16-.11.35.19.72-.15c.45.12.78.18,1.07.18h.33l.29-.03c1.53-.3,2.5-.63,2.94-1.45l.15-.28-.12.74.49.26v.77h1.54c.26,0,.51-.06.73-.14.09.02.19.05.31.08l.2.05h.21c.32,0,.64-.08,1.24-.31.3.03.48.06.57.08l.49.41c.15.13.37.14.54.03l.46-.31h1.56v-.11l.1.11h.68c.37,0,.76-.05,1.19-.14.07-.01.14-.01.21,0l1.26.36c.06.02.12.02.19.01l.78-.11s.07,0,.1,0c.7.06,1.25.1,1.68.1h.45l.38-.24s.08-.05.12-.08c.36.49.68.82,1.04,1.01.14.08.22.23.22.39v1.04h0c.02.36.13.91.5,2.17l.23.79c.05.19.23.32.43.32h.83c.49,0,.99-.18,1.62-.59l.5-.32c.13-.08.2-.22.2-.37v-.6c0-.48.16-.95.5-1.44l.51-.75-.17-.33.11-.22-.25-.5c.04-.25.12-.66.25-1.33l.02-.09c1.02.6,2.42.73,3.12.78.03,0,.06,0,.09.02.55.19,1.19.26,1.71.32l.21.02,1.33-.23c.27.03.43.07.51.09l.32.34h1.25l.33-.16c.51-.25.8-.39.97-.46.06-.02.11-.04.17-.04h.54l.46-.7c.18-.28.31-.47.4-.58,1.06-.51,1.51-2.07,1.91-3.78l.09-.4-.16-.53c.54-.97.55-2.54.55-3.82,0-.01,0-.03,0-.04l-.29-3.32c0-.05,0-.1.01-.15.04-.15.07-.31.07-.49v-.36l-.76-1.52c-.1-.19-.04-.42.13-.55l.74-.57v-.61Zm-14.63-12.28v1.9c-.4-.27-.85-.37-1.26-.37l-.23.02c-.53.08-.83.1-.99.1h-1.44c-.22,0-.42.04-.61.11h-1.15s-.03,0-.04,0l.11-.1s.33-.29,1.65-.46l1.06.2.39-.33h1.15v-2.15l-.28-.4c-.24-.34-.37-.65-.37-.87v-2.76c.09-.36.15-.75.2-1.11l.02-.22c0-.36-.04-.71-.12-1.04.12-.54.12-1.1.12-1.5,0-.82-.05-1.5-.16-2.04.26-.85.38-1.56.38-2.16v-1.5l-2.23-.85c-.1-.08-.2-.15-.29-.22.06-.07.13-.14.2-.21.73-.3,1.71-.78,2.12-1.6.05.2.1.41.16.65l.05.2.1.18c1.03,1.91,1.56,4.1,1.58,6.52l-.08.4-.03.64v.18c.05.3.09.61.17.92h-.4l.46,2.25v3.47c-.12.24-.23.5-.34.81l-.3.81.42.54Zm-15.57,1.73c-.06.02-.11.04-.17.07-.05-.02-.1-.03-.16-.05.1-.02.2-.05.31-.09v.07h.02Zm9.3,10.73c-.06.29-.07.59-.07.89v1.15c-.3.06-.61.19-.97.4-.02-.16-.03-.31-.03-.45s.02-.49.18-1.21l.04-.16v-.17c0-.25-.04-.48-.1-.69.09-.35.15-.76.2-1.25l.05-.51-.16-.27v-.03c.28-.05.54-.12.78-.2.03.08.06.18.1.27l-.09,1.23v.11c0,.26.02.55.07.88Zm.14,9.61s0,.01,0,.02c-.16.07-.34.16-.54.27-.45-.06-.77-.09-1-.12v-.37l-.17-.28c.21-.59.33-1.07.37-1.48.16.04.33.07.52.09h.17s0,0,0,0l.22.17v1.71h.43Zm-3.88-28.83l.03-.19-.07-.09-.15-1.25c-.09-.71-.15-1.44-.18-2.19.31.21.52.39.66.54-.02.13-.02.21-.02.3,0,.31.05.57.13.79.05,1.15.14,2.09.29,2.85h-.09v3.2c0,.21-.03.62-.18,1.35l-.03.16v.09c-.09-.33-.18-.63-.27-.89l-.52-1.79c.02-.43.09-1.16.31-2.39l.05-.28h.06l-.02-.2Zm-8.49,7.04l.03-.06v1.06c-.16-.02-.32-.04-.5-.06l-.39-.05-.36.14c-.37.15-1.27.5-1.55,1.33-.22-.57-.73-.98-1.39-1.09l-.25-.04-.51.09c-.15-.04-.31-.06-.48-.06-.3,0-.67.06-1.56.34h-.11c-.06-.02-.16-.06-.3-.12l1.09-.54c.6.05,1.08.08,1.47.08l.96-.07c.4.17.84.27,1.23.36l.42.09.4-.13c.79-.26,1.39-.68,1.79-1.26Zm-2.68,4.56h.33c.05.28.1.66.15,1.18,0,.06,0,.13-.01.22-.23-.62-.38-1.07-.47-1.39Zm-2.63-20.23l-.6.44v.78c0,.15.01.39.09,1.11l-.53,2.09h.65l-.41,2.21h.35c0,.1-.02.21-.03.33v.11s0,.11,0,.11c.05.68.07,1.15.09,1.47-.2.23-.39.51-.57.87-.01,0-.02,0-.03,0-.07-.07-.12-.13-.17-.18,0-.15-.03-.31-.07-.46l.05-.37.02-.22c0-.33-.05-.69-.16-1.11.01-.02.03-.05.05-.08l.23-.37v-.43c0-.63-.08-1.29-.25-1.96.09-.27.13-.53.13-.8,0-.84-.03-1.7-.1-2.57.07-.4.1-.8.1-1.18,0-.22-.04-.42-.11-.6v-1.53h0c0-.35-.02-.75-.06-1.21.27-.04.64-.14.99-.42h.25c-.04.18-.06.37-.06.55v.44h-.11v1.38l-.13,1.6h.39Zm-4.26,16.44c.1.07.21.14.33.2l-.99-.08.66-.12Zm15.47.96c-.09-.14-.2-.26-.33-.37.04,0,.08,0,.13-.01.09,0,.29.03.69.11-.17.07-.34.17-.5.28Zm21.05,7.36s.03,0,.04,0l.18.83c-.74-.18-1.31-.27-1.77-.27-.09,0-.17,0-.26.02-.07-.26-.16-.52-.28-.76.14-.17.25-.28.32-.35.08.02.16.04.22.06v.48h1.54Zm-1.93,8.91l.05-.2v-.43c.17,0,.34-.02.52-.05.03.02.06.04.1.07.04.11.09.22.15.35-.29.93-.31,2.26-.31,3.77-.09.26-.18.63-.28,1.19,0,0-.02,0-.03,0-.07-.01-.14-.02-.2-.02l-.18-.4c-.35-.8-.42-1.31-.42-1.59,0-.08.04-.6.61-2.69Zm-37.01-17.26l-.77-.07v.69c-.22,0-.49-.02-.82-.09l-.47-.09-.34.15c-.06.01-.17.03-.36.05v-.54c.37-.23.68-.51.91-.85l.13-.22c.16-.35.3-.63.41-.86.24.94.73,1.52,1.31,1.82Zm-18.78.95c-1.67-.02-2.12-.17-2.16-.18l-.45-.21c.51-.3.84-.85.84-1.5v-1.77h-.97c-.05-.12-.11-.29-.18-.52l.12-.21-.14-.77s.04-.08.08-.14l.51-.87-.59-.82s-.03-.05-.05-.07c.08-.29.17-.68.3-1.21l.09-.37-.09-.37c-.12-.46-.18-.97-.18-1.5v-.88l-.05-.4c.03-.16.05-.34.05-.54,0-.14,0-.27,0-.39l1.55.56v-.89c.11,0,.22-.01.34-.03l.45.03c1.83.11,2.28.28,2.32.3l.74.34.53-.31h.07c-.03.15-.04.29-.04.45v.2c.19,1.32.23,1.94.23,2.23,0,.48-.07,1.05-.19,1.67l-.05.25.03.25c.07.55.09.9.1,1.11l-.45,2.24h.23,0s.05.24.05.24c.1.44.3.86.61,1.24.23,1.01.76,1.61,1.37,1.92-.14.06-.27.13-.4.21l-.22-.15h-1.19l-.11.05c-.29-.05-.39-.1-.38-.09l-.4-.29h-.5c-.95,0-1.55.56-1.77,1.21Zm-5.67,7.41l.29.06.13-.06c-.01.05-.03.11-.04.16l-.05.19v.04l-.02-.06h-.18l-.14-.25s0-.05,0-.07Zm14.23-6.4c.19.85.29,1.63.29,2.31v.18l-.46,2.25h.31c-.21.68-.34,1.16-.41,1.51v-.98l-.22-.33c0-.28-.04-.74-.26-1.79l.07-.15-.05-.42c-.06-.59-.16-1.07-.29-1.47.06-.54.15-1.01.25-1.39l.05-.2v-1.18c.12.06.24.11.37.16l.34,1.49Zm3.07-18.36l-.6.44v.78c0,.15.01.39.09,1.11l-.53,2.09h.65l-.41,2.21h.35c0,.1-.02.21-.03.33v.11s0,.11,0,.11c.04.61.07,1.1.09,1.47-.2.23-.39.51-.57.87-.01,0-.02,0-.03,0-.07-.07-.12-.13-.17-.18,0-.15-.03-.31-.07-.46l.05-.37.02-.22c0-.33-.05-.69-.16-1.11.01-.02.03-.05.05-.08l.23-.37v-.43c0-.63-.08-1.29-.25-1.96.09-.27.13-.53.13-.8,0-.83-.03-1.7-.1-2.57.07-.41.1-.8.1-1.18,0-.22-.04-.42-.11-.6v-1.53h0c0-.35-.02-.75-.06-1.21.27-.04.64-.14.99-.42h.25c-.04.18-.06.37-.06.55v.44h-.11v1.38l-.13,1.6h.39Zm-16.24,17.18c-.24.08-.45.17-.63.27l-.39-.2h-1.02l-.27.17.15-.53c.71.15,1.43.24,2.16.29Zm16.74-.5l.36-.03v.38c-.06.01-.13.03-.21.04-.41-.2-.8-.34-1.17-.44.39.03.73.04,1.02.04ZM12.44,10.12s.03,0,.04,0l.18.83c-.73-.18-1.31-.27-1.77-.27-.09,0-.17,0-.26.02-.07-.26-.16-.52-.28-.76.14-.17.25-.28.32-.35.08.02.16.04.22.06v.48h1.54Zm-1.88,8.71v-.43c.17,0,.34-.02.52-.05.03.02.06.04.1.07.04.11.09.22.15.35-.29.93-.31,2.26-.31,3.77-.09.26-.18.63-.28,1.19-.01,0-.02,0-.03,0-.07,0-.13-.02-.2-.02l-.18-.4c-.35-.8-.42-1.3-.42-1.59,0-.08.04-.6.61-2.69l.05-.2Zm9.93,12.39l-.15.09c-.46-.04-.85-.07-1.2-.07h-.71c-.19-.11-.4-.19-.61-.25h.16l2.51.23Zm-10.89,7.31s.03,0,.04,0l.18.83c-.74-.18-1.31-.27-1.77-.27-.09,0-.17,0-.26.02-.07-.26-.16-.52-.28-.76.14-.17.25-.28.32-.35.08.02.16.04.22.06v.48h1.54Zm-1.88,8.71v-.43c.17,0,.34-.02.52-.05.03.02.06.04.1.07.04.11.09.22.15.35-.29.93-.31,2.26-.31,3.77-.09.26-.18.63-.28,1.19,0,0-.02,0-.03,0-.07-.01-.14-.02-.2-.02l-.18-.4c-.35-.8-.42-1.31-.42-1.59,0-.08.04-.6.61-2.69l.05-.2Zm69.91,2.01l.06-.41-.02-.2c-.13-1.18-.18-1.76-.2-2.03.15-.42.2-.62.2-.85l.05.05.21.09c.37.17.65.29.86.39v.82l.14-.02c-.35.79-.71,1.51-1.08,2.13-.06.03-.12.08-.18.11-.01-.03-.02-.06-.04-.09Zm-11.17-43.54h.43v-.22l.12.17v.5c0,.52.03,1.15.08,1.92-.12.17-.3.39-.53.66-.09-2.05-.11-2.62-.11-2.77,0-.09,0-.18.01-.25ZM22.55,55.54h-.93c-.09-.2-.2-.54-.34-1.06.03-.11.07-.29.13-.54l.1-.37-.09-.37c-.12-.51-.21-1.27-.28-2.24l.14-.92-.35-1.28c.02-.15.08-.37.21-.7l.19-.47-.04-.18c.21-.05.44-.11.69-.19-.04.29-.06.56-.06.8v.25l.08.24c.1.31.22.66.39.99l-.04.23.1,1.03-.17.29.26,1.38c-.04.18-.06.37-.06.56v1.44l.18.62-.1.49Zm33.32,1.46l-.07-.33c-.11-.55-.18-.92-.23-1.16,0-.02.01-.04.02-.06.09.43.2.84.33,1.21-.01.09-.03.2-.05.35Z"/>
  <path d="m91.38,39.95s0-.05,0-.07c.04-.24.14-.75.3-1.55l.03-.62c0-.84-.08-1.55-.23-2.15,0-.06,0-.11,0-.17v-.44l-.03-.3c-.09-.44-.21-1.02-.47-1.51-.16-.91-.71-1.74-1.62-2.47l-.29-.24-.02-.75-1.73.22c-.31.04-.59.08-.84.12-.13.02-.25-.02-.35-.1-.38-.3-.89-.51-1.56-.58h-.16c-.14,0-.28,0-.42.04-.51-.11-.99-.16-1.46-.16h-1.76l-.48.29c-.07-.01-.15-.03-.24-.04l-.68-.13-.41.32h-1.79l.66-.31v.22l1.95-.54c1.34-.37,1.93-.52,2.19-.57.05-.01.1-.01.14,0l2.44.27v-.3h.11v-1.54c0-.09,0-.19-.01-.27l.13-.26-.19-.6c-.46-1.44-.48-1.88-.48-1.96v-.85s0-.05,0-.07c.15-.99.34-1.8.56-2.43l.09-.25v-.27c0-.28-.03-.44-.33-1.21h0c0-.28-.03-.53-.09-.76.04-.47.07-.94.08-1.41,0-.06.02-.12.05-.18.26-.53.42-1,.48-1.44,0-.03.01-.07.03-.1l1.33-3.1v-.32h.36l.18-1.34c.21-1.58.38-2.47.5-2.97h.28l.29-1.18c.11-.46.21-.8.29-1.06.06-.18.23-.3.42-.3h.54v-2.13l-.16-.33c-.51-1.03-1.29-1.18-1.71-1.18h-1.1c-.25,0-.54.04-1.1.23-.04,0-.08,0-.12,0h-.22l-.25.02-.75-.46h-.65l-.28.03c-.7.13-1.23.63-1.59,1.47l-.12.28v.31c0,.13.01.27.05.41v.05c-.08.33-.14.59-.19.8l-.48-1.17c.04-.1.07-.19.09-.26l.08-.23V.91c0-.25-.2-.44-.44-.44h-1.1c-.22,0-.43.04-.63.11h-.03c-.1,0-.2,0-.31.03l-.46-.03c-.76,0-1.46.25-2.03.71-.07-.02-.1-.03-.1-.04v-.67h-1.88c-.15,0-.3.01-.44.04-.14-.03-.29-.04-.44-.04h-.29l-.18.05c-.31.08-.8.2-1.24.45-.18-.03-.42-.07-.73-.13l-1.84-.37v.47c-.17-.01-.32-.02-.45-.02h-1.22v-.33h-2.78l-.23.32c-.13.02-.33.06-.64.08-.09-.04-.18-.08-.28-.11l-.24-.08h-.25s-.02,0-.04,0l-.16-.28-1.06.19c-1.15.2-1.61.28-1.79.31-.02,0-.04,0-.07,0h-1.41c-.41-.21-.88-.34-1.42-.34-.07,0-.15,0-.25.02-.25-.11-.55-.19-.91-.23l-.15-.02-.15.02c-1.02.1-2.02.2-2.79.45-.08-.06-.17-.13-.28-.22l-.54-.44-.85.15-.46-.23-.68.34s-.13.06-.3.1c-.43-.11-.86-.13-1.15-.15h-.2s-.32.05-.32.05c-.15-.04-.3-.06-.45-.06-.71,0-1.21.42-1.66.96-.17.2-.47.22-.66.03-.49-.49-1.19-.77-2.02-.77-.07,0-.15,0-.25.02-.25-.11-.55-.19-.91-.23l-.15-.02-.15.02c-1.02.1-2.02.2-2.79.45-.08-.06-.17-.13-.28-.22l-.54-.44-.85.15-.46-.23-.68.34s-.13.06-.3.1c-.43-.11-.86-.13-1.15-.15h-.2s-.32.05-.32.05c-.15-.04-.3-.06-.45-.06-.64,0-1.12.35-1.54.81-.13.15-.35.19-.52.1-.67-.36-1.62-.55-2.69-.77l-.31-.03c-.24,0-.53.03-.93.09-.03,0-.06,0-.09,0-1.36-.07-2.19-.1-2.63-.1l-.32.03c-.11-.02-.22-.03-.34-.03-.18,0-.57.03-.98.26l-.39-.15h-.3c-.2,0-.39.02-.58.07l-.26-.04-1.79-.02s-.03,0-.04,0l-.89.07s-.08,0-.13-.01c-.15-.04-.32-.06-.5-.06h-.68c-.17,0-.32.1-.4.25l-.51,1.03-.07-.05-.02-.75-1.73.22c-.31.04-.59.08-.84.12-.13.02-.25-.02-.35-.1-.38-.3-.89-.51-1.56-.58h-.16c-.14,0-.28,0-.42.04-.51-.11-1-.16-1.46-.16h-1.76l-.48.29c-.07-.01-.15-.02-.24-.04l-.68-.13-.41.32h-2.06v.73s0,.07-.01.11l-.17.67c-.17.68-.3,1.15-.39,1.48h-.54v1.54c0,.43-.03,1.02-.1,1.74v.14c0,.15,0,.46.09,1.58,0,.03,0,.06,0,.09-.18,1.62-.21,2.16-.21,2.42v.54l.3.38s.05.13.08.31c-.04.14-.05.28-.05.43,0,.81.53,1.41,1.64,2.38l.17.15.21.09c.24.11.43.2.6.28.16.07.25.23.25.4v.54l.14-.02c-.33.75-.67,1.43-1.02,2.03-.04.07-.09.12-.16.15-.95.55-1.83,1.77-1.83,4.38v.57c.08.89.19,2.07.72,2.81.66,1.58,3.15,1.82,4.16,1.89.03,0,.06,0,.09.02.55.19,1.19.26,1.7.32l.22.02,1.33-.23c.27.03.43.07.51.09l.32.34h1.25l.33-.16c.51-.25.81-.39.97-.46.06-.02.11-.04.17-.04h.54l.46-.7c.18-.28.31-.47.4-.58.04-.02.07-.05.1-.07v1.71h-.34l-2.25,1.25.02.18s-.06-.06-.1-.09l-.29-.24-.02-.75-1.73.22c-.31.04-.59.08-.84.12-.13.02-.25-.02-.35-.1-.38-.3-.89-.51-1.56-.58h-.16c-.14,0-.28,0-.42.04-.51-.11-.99-.16-1.46-.16h-1.76l-.48.29c-.07-.01-.15-.03-.24-.04l-.68-.13-.41.32H1.32v.73s0,.07-.01.11l-.17.67c-.17.68-.3,1.15-.39,1.48H.22v1.54c0,.43-.03,1.02-.1,1.74v.14c0,.15,0,.46.09,1.58,0,.03,0,.06,0,.09-.18,1.62-.21,2.16-.21,2.42v.54l.3.38s.05.13.08.31c-.04.14-.05.28-.05.43,0,.81.53,1.41,1.64,2.38l.17.15.21.09c.24.11.43.2.6.28.16.07.25.23.25.4v.54l.14-.02c-.33.75-.67,1.43-1.02,2.03-.04.07-.09.12-.16.15-.95.55-1.83,1.77-1.83,4.38v.57c.08.89.19,2.07.71,2.81.66,1.58,3.14,1.82,4.15,1.89.03,0,.06,0,.09.02.55.19,1.19.26,1.71.32l.21.02,1.33-.23c.27.03.43.07.51.09l.32.34h1.25l.33-.16c.51-.25.8-.39.97-.46.06-.02.11-.04.17-.04h.54l.46-.7s.05-.08.08-.12c.41,1.12,1.99,1.22,2.9,1.27l.37.02.34-.15c.08-.03.27-.11.7-.21h.34c.19,0,.38-.02.55-.06v.5h1.54c.33,0,.6-.05.83-.14.58-.08,1.01-.32,1.33-.63.16-.16.41-.19.59-.04l1.55,1.22c.12.1.29.12.44.06l.59-.23c.1-.04.2-.08.29-.11h1.12c.33,0,.66-.07.99-.2.16.01.33.04.5.07l.32.06.32-.08c.11-.03.3-.06.62-.06h1.1c.25,0,.44-.2.44-.44v-1.68c0-.09-.03-.18-.08-.26l-1.03-1.44c-.04-.05-.07-.11-.08-.18-.04-.27-.09-.68-.13-1.28,0-.02,0-.04,0-.06,0-.11.03-.4.1-1.13v-.1s0-.1,0-.1c-.01-.31-.07-.62-.19-.91l-.04-.77c-.05-.97-.1-1.59-.14-2,0-.06,0-.12.02-.17.14-.44.19-.9.23-1.22l.06-.5-.16-.28c0-.28.05-.7.14-1.3l.47.24c.1.53.3,1.26.67,2.3l-.03.06.03.41c.13,1.63.32,3.08.57,4.31l-.03.43c0,.1,0,.19.06.62l-.03.37-.55,1.88h1c.01.07.03.14.04.22l-.2,1.2c-.03.19.06.38.24.47l1.18.59c.06.03.13.05.2.05h1.2c.08,0,.16.02.23.07.57.34,1.03.49,1.48.49h1.54v-.45c1.25-.12,1.88-1.26,1.88-3.41l-.07-.5c.05-.2.07-.34.07-.5v-.38l-.03-.05.4-1.82.14-.27-.06-.11.25-1.11h-.38v-.72c.27-.42.5-.9.68-1.42l.21-.59-.18-.39c.18-1.37.38-1.98.49-2.24l.07-.17.03-.18c.63-3.66.91-5.41,1.03-6.28.05,1.63.2,2.76.52,3.55-.13.31-.2.62-.2.92,0,.61-.04,2.05-.11,4.26l-.02.54.09.13c-.08.25-.14.53-.18.83l-.04.32.21.73c.02.05.02.11.02.16-.06.7-.09,1.32-.09,1.87v.83s0,.08-.02.12c-.37,1.35-.43,1.83-.43,2.14v.29l.17.42c-.05.21-.15.56-.33,1.16l-.07.22h0c0,1.22.99,2.21,2.21,2.21h.44s.06,0,.09,0l1.42-.29c.05-.01.1-.01.15,0l.81.12.35.18.55-.33h.85c.23.09.45.11.61.11h.46l.16-.11.35.19.72-.15c.45.12.78.18,1.07.18h.33l.29-.03c1.53-.3,2.5-.63,2.94-1.45l.15-.28-.12.74.49.26v.77h1.54c.26,0,.51-.06.73-.14.09.02.19.05.31.08l.2.05h.21c.32,0,.64-.08,1.24-.31.3.03.48.06.57.08l.49.41c.15.13.37.14.54.03l.46-.31h1.56v-.11l.1.11h.68c.37,0,.76-.05,1.19-.14.07-.01.14-.01.21,0l1.26.36c.06.02.12.02.19.01l.78-.11s.07,0,.1,0c.7.06,1.25.1,1.68.1h.45l.38-.24s.08-.05.12-.08c.36.49.68.82,1.04,1.01.14.08.22.23.22.39v1.04h0c.02.36.13.91.5,2.17l.23.79c.05.19.23.32.43.32h.83c.49,0,.99-.18,1.62-.59l.5-.32c.13-.08.2-.22.2-.37v-.6c0-.48.16-.95.5-1.44l.51-.75-.17-.33.11-.22-.25-.5c.04-.25.12-.66.25-1.33l.02-.09c1.02.6,2.42.73,3.12.78.03,0,.06,0,.09.02.55.19,1.19.26,1.71.32l.21.02,1.33-.23c.27.03.43.07.51.09l.32.34h1.25l.33-.16c.51-.25.8-.39.97-.46.06-.02.11-.04.17-.04h.54l.46-.7c.18-.28.31-.47.4-.58,1.06-.51,1.51-2.07,1.91-3.78l.09-.4-.16-.53c.54-.97.55-2.54.55-3.82,0-.01,0-.03,0-.04l-.29-3.32c0-.05,0-.1.01-.15.04-.15.07-.31.07-.49v-.36l-.76-1.52c-.1-.19-.04-.42.13-.55l.74-.57v-.61Zm-14.63-12.28v1.9c-.4-.27-.85-.37-1.26-.37l-.23.02c-.53.08-.83.1-.99.1h-1.44c-.22,0-.42.04-.61.11h-1.15s-.03,0-.04,0l.11-.1s.33-.29,1.65-.46l1.06.2.39-.33h1.15v-2.15l-.28-.4c-.24-.34-.37-.65-.37-.87v-2.76c.09-.36.15-.75.2-1.11l.02-.22c0-.36-.04-.71-.12-1.04.12-.54.12-1.1.12-1.5,0-.82-.05-1.5-.16-2.04.26-.85.38-1.56.38-2.16v-1.5l-2.23-.85c-.1-.08-.2-.15-.29-.22.06-.07.13-.14.2-.21.73-.3,1.71-.78,2.12-1.6.05.2.1.41.16.65l.05.2.1.18c1.03,1.91,1.56,4.1,1.58,6.52l-.08.4-.03.64v.18c.05.3.09.61.17.92h-.4l.46,2.25v3.47c-.12.24-.23.5-.34.81l-.3.81.42.54Zm-15.57,1.73c-.06.02-.11.04-.17.07-.05-.02-.1-.03-.16-.05.1-.02.2-.05.31-.09v.07h.02Zm9.3,10.73c-.06.29-.07.59-.07.89v1.15c-.3.06-.61.19-.97.4-.02-.16-.03-.31-.03-.45s.02-.49.18-1.21l.04-.16v-.17c0-.25-.04-.48-.1-.69.09-.35.15-.76.2-1.25l.05-.51-.16-.27v-.03c.28-.05.54-.12.78-.2.03.08.06.18.1.27l-.09,1.23v.11c0,.26.02.55.07.88Zm.14,9.61s0,.01,0,.02c-.16.07-.34.16-.54.27-.45-.06-.77-.09-1-.12v-.37l-.17-.28c.21-.59.33-1.07.37-1.48.16.04.33.07.52.09h.17s0,0,0,0l.22.17v1.71h.43Zm-3.88-28.83l.03-.19-.07-.09-.15-1.25c-.09-.71-.15-1.44-.18-2.19.31.21.52.39.66.54-.02.13-.02.21-.02.3,0,.31.05.57.13.79.05,1.15.14,2.09.29,2.85h-.09v3.2c0,.21-.03.62-.18,1.35l-.03.16v.09c-.09-.33-.18-.63-.27-.89l-.52-1.79c.02-.43.09-1.16.31-2.39l.05-.28h.06l-.02-.2Zm-8.49,7.04l.03-.06v1.06c-.16-.02-.32-.04-.5-.06l-.39-.05-.36.14c-.37.15-1.27.5-1.55,1.33-.22-.57-.73-.98-1.39-1.09l-.25-.04-.51.09c-.15-.04-.31-.06-.48-.06-.3,0-.67.06-1.56.34h-.11c-.06-.02-.16-.06-.3-.12l1.09-.54c.6.05,1.08.08,1.47.08l.96-.07c.4.17.84.27,1.23.36l.42.09.4-.13c.79-.26,1.39-.68,1.79-1.26Zm-2.68,4.56h.33c.05.28.1.66.15,1.18,0,.06,0,.13-.01.22-.23-.62-.38-1.07-.47-1.39Zm-2.63-20.23l-.6.44v.78c0,.15.01.39.09,1.11l-.53,2.09h.65l-.41,2.21h.35c0,.1-.02.21-.03.33v.11s0,.11,0,.11c.05.68.07,1.15.09,1.47-.2.23-.39.51-.57.87-.01,0-.02,0-.03,0-.07-.07-.12-.13-.17-.18,0-.15-.03-.31-.07-.46l.05-.37.02-.22c0-.33-.05-.69-.16-1.11.01-.02.03-.05.05-.08l.23-.37v-.43c0-.63-.08-1.29-.25-1.96.09-.27.13-.53.13-.8,0-.84-.03-1.7-.1-2.57.07-.4.1-.8.1-1.18,0-.22-.04-.42-.11-.6v-1.53h0c0-.35-.02-.75-.06-1.21.27-.04.64-.14.99-.42h.25c-.04.18-.06.37-.06.55v.44h-.11v1.38l-.13,1.6h.39Zm-4.26,16.44c.1.07.21.14.33.2l-.99-.08.66-.12Zm15.47.96c-.09-.14-.2-.26-.33-.37.04,0,.08,0,.13-.01.09,0,.29.03.69.11-.17.07-.34.17-.5.28Zm21.05,7.36s.03,0,.04,0l.18.83c-.74-.18-1.31-.27-1.77-.27-.09,0-.17,0-.26.02-.07-.26-.16-.52-.28-.76.14-.17.25-.28.32-.35.08.02.16.04.22.06v.48h1.54Zm-1.93,8.91l.05-.2v-.43c.17,0,.34-.02.52-.05.03.02.06.04.1.07.04.11.09.22.15.35-.29.93-.31,2.26-.31,3.77-.09.26-.18.63-.28,1.19,0,0-.02,0-.03,0-.07-.01-.14-.02-.2-.02l-.18-.4c-.35-.8-.42-1.31-.42-1.59,0-.08.04-.6.61-2.69Zm-37.01-17.26l-.77-.07v.69c-.22,0-.49-.02-.82-.09l-.47-.09-.34.15c-.06.01-.17.03-.36.05v-.54c.37-.23.68-.51.91-.85l.13-.22c.16-.35.3-.63.41-.86.24.94.73,1.52,1.31,1.82Zm-18.78.95c-1.67-.02-2.12-.17-2.16-.18l-.45-.21c.51-.3.84-.85.84-1.5v-1.77h-.97c-.05-.12-.11-.29-.18-.52l.12-.21-.14-.77s.04-.08.08-.14l.51-.87-.59-.82s-.03-.05-.05-.07c.08-.29.17-.68.3-1.21l.09-.37-.09-.37c-.12-.46-.18-.97-.18-1.5v-.88l-.05-.4c.03-.16.05-.34.05-.54,0-.14,0-.27,0-.39l1.55.56v-.89c.11,0,.22-.01.34-.03l.45.03c1.83.11,2.28.28,2.32.3l.74.34.53-.31h.07c-.03.15-.04.29-.04.45v.2c.19,1.32.23,1.94.23,2.23,0,.48-.07,1.05-.19,1.67l-.05.25.03.25c.07.55.09.9.1,1.11l-.45,2.24h.23,0s.05.24.05.24c.1.44.3.86.61,1.24.23,1.01.76,1.61,1.37,1.92-.14.06-.27.13-.4.21l-.22-.15h-1.19l-.11.05c-.29-.05-.39-.1-.38-.09l-.4-.29h-.5c-.95,0-1.55.56-1.77,1.21Zm-5.67,7.41l.29.06.13-.06c-.01.05-.03.11-.04.16l-.05.19v.04l-.02-.06h-.18l-.14-.25s0-.05,0-.07Zm14.23-6.4c.19.85.29,1.63.29,2.31v.18l-.46,2.25h.31c-.21.68-.34,1.16-.41,1.51v-.98l-.22-.33c0-.28-.04-.74-.26-1.79l.07-.15-.05-.42c-.06-.59-.16-1.07-.29-1.47.06-.54.15-1.01.25-1.39l.05-.2v-1.18c.12.06.24.11.37.16l.34,1.49Zm3.07-18.36l-.6.44v.78c0,.15.01.39.09,1.11l-.53,2.09h.65l-.41,2.21h.35c0,.1-.02.21-.03.33v.11s0,.11,0,.11c.04.61.07,1.1.09,1.47-.2.23-.39.51-.57.87-.01,0-.02,0-.03,0-.07-.07-.12-.13-.17-.18,0-.15-.03-.31-.07-.46l.05-.37.02-.22c0-.33-.05-.69-.16-1.11.01-.02.03-.05.05-.08l.23-.37v-.43c0-.63-.08-1.29-.25-1.96.09-.27.13-.53.13-.8,0-.83-.03-1.7-.1-2.57.07-.41.1-.8.1-1.18,0-.22-.04-.42-.11-.6v-1.53h0c0-.35-.02-.75-.06-1.21.27-.04.64-.14.99-.42h.25c-.04.18-.06.37-.06.55v.44h-.11v1.38l-.13,1.6h.39Zm-16.24,17.18c-.24.08-.45.17-.63.27l-.39-.2h-1.02l-.27.17.15-.53c.71.15,1.43.24,2.16.29Zm16.74-.5l.36-.03v.38c-.06.01-.13.03-.21.04-.41-.2-.8-.34-1.17-.44.39.03.73.04,1.02.04ZM12.44,8.63s.03,0,.04,0l.18.83c-.73-.18-1.31-.27-1.77-.27-.09,0-.17,0-.26.02-.07-.26-.16-.52-.28-.76.14-.17.25-.28.32-.35.08.02.16.04.22.06v.48h1.54Zm-1.88,8.71v-.43c.17,0,.34-.02.52-.05.03.02.06.04.1.07.04.11.09.22.15.35-.29.93-.31,2.26-.31,3.77-.09.26-.18.63-.28,1.19-.01,0-.02,0-.03,0-.07,0-.13-.02-.2-.02l-.18-.4c-.35-.8-.42-1.3-.42-1.59,0-.08.04-.6.61-2.69l.05-.2Zm9.93,12.39l-.15.09c-.46-.04-.85-.07-1.2-.07h-.71c-.19-.11-.4-.19-.61-.25h.16l2.51.23Zm-10.89,7.31s.03,0,.04,0l.18.83c-.74-.18-1.31-.27-1.77-.27-.09,0-.17,0-.26.02-.07-.26-.16-.52-.28-.76.14-.17.25-.28.32-.35.08.02.16.04.22.06v.48h1.54Zm-1.88,8.71v-.43c.17,0,.34-.02.52-.05.03.02.06.04.1.07.04.11.09.22.15.35-.29.93-.31,2.26-.31,3.77-.09.26-.18.63-.28,1.19,0,0-.02,0-.03,0-.07-.01-.14-.02-.2-.02l-.18-.4c-.35-.8-.42-1.31-.42-1.59,0-.08.04-.6.61-2.69l.05-.2Zm69.91,2.01l.06-.41-.02-.2c-.13-1.18-.18-1.76-.2-2.03.15-.42.2-.62.2-.85l.05.05.21.09c.37.17.65.29.86.39v.82l.14-.02c-.35.79-.71,1.51-1.08,2.13-.06.03-.12.08-.18.11-.01-.03-.02-.06-.04-.09Zm-11.17-43.54h.43v-.22l.12.17v.5c0,.52.03,1.15.08,1.92-.12.17-.3.39-.53.66-.09-2.05-.11-2.62-.11-2.77,0-.09,0-.18.01-.25ZM22.55,54.05h-.93c-.09-.2-.2-.54-.34-1.06.03-.11.07-.29.13-.54l.1-.37-.09-.37c-.12-.51-.21-1.27-.28-2.24l.14-.92-.35-1.28c.02-.15.08-.37.21-.7l.19-.47-.04-.18c.21-.05.44-.11.69-.19-.04.29-.06.56-.06.8v.25l.08.24c.1.31.22.66.39.99l-.04.23.1,1.03-.17.29.26,1.38c-.04.18-.06.37-.06.56v1.44l.18.62-.1.49Zm33.32,1.46l-.07-.33c-.11-.55-.18-.92-.23-1.16,0-.02.01-.04.02-.06.09.43.2.84.33,1.21-.01.09-.03.2-.05.35Z"/>
  <g>
    <path class="cls-1" d="m12.68,26.06c-.21-.22-.72-.37-1.55-.44l-1.32.23c-1.1-.12-1.65-.27-1.65-.44-.07,0-.11.03-.11.1-1.99-.15-2.98-.55-2.98-1.21-.25,0-.43-.7-.55-2.1v-.44c0-1.87.48-2.94,1.44-3.2.54-.84,1.06-1.83,1.55-2.98.24-.37.53-.55.88-.55h.44v.1c-.44,1.62-.67,2.66-.67,3.1,0,.63.18,1.37.55,2.21l-.11.22c.13.69.35,1.09.67,1.22l.22-.11h.77c.08,0,.11.04.11.11,1.03-.27,1.55-.46,1.55-.55.17-1.1.32-1.77.44-1.99,0-2.57.15-3.86.44-3.86h.11c-.44-.94-.67-1.5-.67-1.66-.17,0-.42-.15-.77-.44-.17,0-.31-.03-.44-.1-.29.07-.55.1-.78.1-.36-.22-.66-.33-.88-.33-.12.15-.78.3-1.98.44,0-.06-.59-.35-1.77-.88-.74-.64-1.11-1.04-1.11-1.21,0-.07.04-.11.11-.11-.07-.75-.22-1.26-.44-1.54,0-.36.07-1.17.22-2.43-.07-.93-.1-1.48-.1-1.65.07-.77.1-1.4.1-1.88.15,0,.44-.88.88-2.65.15,0,.22-.11.22-.34h1s.14-.07.33-.22c.4.08.7.11.88.11l.55-.34h1.32c.47,0,.99.07,1.54.22.14-.07.26-.11.34-.11.73.07,1.1.41,1.1,1,.17-.15.83-.3,1.99-.44,0,.17.29.32.88.44.73.59,1.1,1.22,1.1,1.88.13,0,.28.4.44,1.21v.44c0,.07-.03.11-.1.11.22.53.33,1.27.33,2.21v.33c-.22,1.13-.33,1.71-.33,1.77l-.44.34h-.23v-.78c-.4-.84-.8-1.54-1.21-2.1,0-.18-.4-.37-1.21-.55-.19-.88-.34-1.36-.44-1.44-.67.15-1.04.22-1.11.22,0-.1-.55-.28-1.65-.55h-.34c-.44,0-1.03.52-1.77,1.55l-.1.66c.33,0,.59.66.77,1.99l.88.22c.24-.14.46-.22.66-.22.52,0,1.37.18,2.55.55,0,.28.33.54,1,.78,0,.13.44.35,1.32.66l1.21,2.43c0,.07-.04.18-.11.33l.33,3.65c0,2.14-.18,3.2-.55,3.2l-.23.11.33,1.1c-.43,1.84-.83,2.76-1.21,2.76-.11,0-.4.37-.88,1.11-.15,0-.66.22-1.54.66h-.23Z"/>
    <path class="cls-1" d="m18.11,25.95h-.33v-.22c.42-.34.68-.89.77-1.65l-.11-.78c.07-1.06.11-1.65.11-1.77,0-.22-.08-.51-.23-.88.15-.73.23-1.47.23-2.21v-1.54c0-.29.22-.66.66-1.11v-.22c-.42,0-.68-.3-.77-.89v-3.86c.02-1.1.1-1.65.22-1.65,0-.06-.18-.73-.55-1.99.07-.4.11-.73.11-1v-.77c0-.08.03-.11.1-.11l-.1-.22v-.11c0-.07.03-.11.1-.11-.07-.14-.1-.25-.1-.33,0-.98-.07-1.94-.22-2.87h.11c-.1-.42-.25-.74-.44-.99v-.11l.11-.22c.14,0,.22.04.22.11l1.32-.11h1.55l.66.11c.13-.07.28-.11.44-.11l1.11.44c.12-.36.31-.55.55-.55.07,0,.1.03.1.1l.55-.1c.43,0,1.35.03,2.76.1.4-.07.7-.1.88-.1,1.62.33,2.43.59,2.43.77.3.34.59,1.08.88,2.21,0,.03-.04.18-.11.44.14.94.22,1.52.22,1.77-.07,2.36-.1,3.72-.1,4.09,0,.12.11.6.33,1.44-.07.22-.15.33-.22.33l.11.22c0,.68-.44,1.3-1.32,1.87-.17,0-.31.04-.44.11-.43-.2-1.39-.35-2.87-.44,0-.07-.03-.11-.1-.11-.4.08-.73.11-1,.11,0-.19-.29-.38-.88-.55-.05.32-.19.54-.44.67v.11l-1.21-.44c-.23.22-.34,1.04-.34,2.48,0,.26-.03.39-.1.39l.1.55v.88c0,.66.07,1.29.22,1.88-.24,1.03-.39,1.58-.44,1.65.1.32.25.62.44.88-.22.37-.33.66-.33.88l.1.55c-.07.13-.1.27-.1.44.35,1.4.75,2.1,1.21,2.1v.22c0,.14-.08.22-.23.22-1.21,0-2.39-.15-3.53-.44-.58.07-.91.25-1,.55l-1.1-.11ZM27.16,5.74c-.15-.22-.22-.48-.22-.77h-.44l-.66-.11c-.32.15-.8.26-1.44.34,0-.11-.11-.22-.33-.34h-.11c-.44,0-.67.26-.67.78,0,.35-.11.75-.33,1.21.27.88.52,1.32.77,1.32.14-.07.26-.11.34-.11.08,0,.18.04.33.11l1.32-.33h.55l.44.33c.18,0,.33-.81.44-2.43Z"/>
    <path class="cls-1" d="m35.09,24.63h-.22c-.37,0-.7.22-1,.67l-.55.11c-.57,0-.9-.44-1-1.32-.29-.28-.48-.58-.55-.88.07-.88.14-1.32.22-1.32,0-.07-.04-.11-.11-.11l.11-.55c0-.33-.04-.81-.11-1.44.15-.73.23-1.39.23-1.98,0-.49-.07-1.3-.23-2.43,0-.17.04-.31.11-.44-.07-.5-.11-.91-.11-1.21v-.78c0-.06.08-.36.23-.88v-.22c-.37-.22-.55-1.15-.55-2.76v-.77c0-.65.04-1.39.11-2.21l-.11-.55c.25-2.74.47-4.29.67-4.64.39-.51.64-.77.77-.77.08,0,.19.04.33.11l.55-.11c.74.04,1.11.11,1.11.22.46-.09.83-.2,1.1-.33l.23.11.66-.11c.63.51,1.07.77,1.32.77,0-.25.96-.47,2.87-.66.44.05.66.16.66.33.39-.07.61-.11.67-.11.88,0,1.32.52,1.32,1.55.22.62.44,1.51.66,2.65-.06.29-.13.44-.22.44.14.35.29,1.2.44,2.54,0,.16-.04.57-.11,1.22.08,1.08.11,2.03.11,2.87h-.11l.11.22v.11c0,1.25-.07,1.87-.22,1.87.15.38.22.93.22,1.66-.1,0-.21.18-.33.55-.15.02-.23.1-.23.22l.44.77-.11.67.11.44c-.07.77-.11,1.39-.11,1.88,0,.08.04.18.11.33l-.55,2.21c.08.14.11.25.11.33-.13.02-.53.75-1.21,2.21-.2.29-.53.52-1,.67-.81-.18-1.21-.33-1.21-.44l-1.11.11h-.22c-.43,0-1.02-.04-1.77-.11l-1.11.55c-.96-.21-1.44-.61-1.44-1.22Zm4.31-3.42c-.07-.39-.11-.61-.11-.67.28-.59.57-.88.88-.88l.11-.22h-.22c0-.4-.03-1.1-.1-2.1.07-.87.1-1.49.1-1.88,0-.07-.03-.11-.1-.11l.1-.55v-.55c0-.73-.07-1.1-.22-1.1l.11-.44c-.07-.65-.11-1.06-.11-1.21.66-.48,1-.78,1-.88-.44-.65-.67-1.24-.67-1.78h.11c0-.07-.04-.1-.11-.1.05-.59.12-.88.22-.88l-.11-.55v-.44c0-.25.11-.5.33-.77,0-.4-.37-.91-1.11-1.55-.04,0-.3.07-.77.22h-.88c-.15.29-.33.44-.55.44-.59,0-.88-.15-.88-.44h-.22c0,.22-.07.7-.22,1.43.07.77.11,1.4.11,1.88h-.11l.11.23v.22c0,.15-.29.3-.88.44l-.11.22c.74.47,1.11.76,1.11.88,0,.35-.04.71-.11,1.1.07.91.11,1.79.11,2.65,0,.2-.07.42-.22.67.22.74.34,1.44.34,2.1-.23.37-.34.66-.34.88.15.46.22.83.22,1.11l-.11.77c.07.14.11.25.11.33h-.11c.07.5.47,1.06,1.21,1.66.43,0,1.02.03,1.77.1.22-.07.34-.14.34-.22Z"/>
    <path class="cls-1" d="m48.92,24.63h-.22c-.37,0-.7.22-1,.67l-.55.11c-.57,0-.9-.44-1-1.32-.29-.28-.48-.58-.55-.88.07-.88.14-1.32.22-1.32,0-.07-.04-.11-.11-.11l.11-.55c0-.33-.04-.81-.11-1.44.15-.73.23-1.39.23-1.98,0-.49-.07-1.3-.23-2.43,0-.17.04-.31.11-.44-.07-.5-.11-.91-.11-1.21v-.78c0-.06.08-.36.23-.88v-.22c-.37-.22-.55-1.15-.55-2.76v-.77c0-.65.04-1.39.11-2.21l-.11-.55c.25-2.74.47-4.29.67-4.64.39-.51.64-.77.77-.77.08,0,.19.04.33.11l.55-.11c.74.04,1.11.11,1.11.22.46-.09.83-.2,1.1-.33l.23.11.66-.11c.63.51,1.07.77,1.32.77,0-.25.96-.47,2.87-.66.44.05.66.16.66.33.39-.07.61-.11.67-.11.88,0,1.32.52,1.32,1.55.22.62.44,1.51.66,2.65-.06.29-.13.44-.22.44.14.35.29,1.2.44,2.54,0,.16-.04.57-.11,1.22.08,1.08.11,2.03.11,2.87h-.11l.11.22v.11c0,1.25-.07,1.87-.22,1.87.15.38.22.93.22,1.66-.1,0-.21.18-.33.55-.15.02-.23.1-.23.22l.44.77-.11.67.11.44c-.07.77-.11,1.39-.11,1.88,0,.08.04.18.11.33l-.55,2.21c.08.14.11.25.11.33-.13.02-.53.75-1.21,2.21-.2.29-.53.52-1,.67-.81-.18-1.21-.33-1.21-.44l-1.11.11h-.22c-.43,0-1.02-.04-1.77-.11l-1.11.55c-.96-.21-1.44-.61-1.44-1.22Zm4.31-3.42c-.07-.39-.11-.61-.11-.67.28-.59.57-.88.88-.88l.11-.22h-.22c0-.4-.03-1.1-.1-2.1.07-.87.1-1.49.1-1.88,0-.07-.03-.11-.1-.11l.1-.55v-.55c0-.73-.07-1.1-.22-1.1l.11-.44c-.07-.65-.11-1.06-.11-1.21.66-.48,1-.78,1-.88-.44-.65-.67-1.24-.67-1.78h.11c0-.07-.04-.1-.11-.1.05-.59.12-.88.22-.88l-.11-.55v-.44c0-.25.11-.5.33-.77,0-.4-.37-.91-1.11-1.55-.04,0-.3.07-.77.22h-.88c-.15.29-.33.44-.55.44-.59,0-.88-.15-.88-.44h-.22c0,.22-.07.7-.22,1.43.07.77.11,1.4.11,1.88h-.11l.11.23v.22c0,.15-.29.3-.88.44l-.11.22c.74.47,1.11.76,1.11.88,0,.35-.04.71-.11,1.1.08.91.11,1.79.11,2.65,0,.2-.07.42-.22.67.22.74.34,1.44.34,2.1-.23.37-.34.66-.34.88.15.46.22.83.22,1.11l-.11.77c.08.14.11.25.11.33h-.11c.07.5.47,1.06,1.21,1.66.43,0,1.02.03,1.77.1.22-.07.34-.14.34-.22Z"/>
    <path class="cls-1" d="m68.46,26.29c.05-.66.12-1,.22-1-.14-.29-.22-.55-.22-.77.14-.69.22-1.25.22-1.66v-1.65c.44,0,.67-.08.67-.23v-.1c-.52-.54-.81-2.05-.88-4.53-.07,0-.11-.11-.11-.33,0-.06.04-.28.11-.67-.39-.74-1.24-1.44-2.55-2.1l-.99-.67h-.34v.67c0,.07-.03.1-.1.1.07.14.1.26.1.34,0,1.34.07,2.63.23,3.86-.1,0-.28.29-.55.88.1,0,.33.22.67.67-.23,1.26-.34,2.22-.34,2.87l.23.78c-.07,0-.11.03-.11.1.11.02.4.87.88,2.55.07,0,.11.07.11.22h-.11l-.44.33c-.73-.14-1.21-.22-1.44-.22-.65.07-1.06.11-1.21.11,0-.18-.18-.44-.55-.78-.78.53-1.41.83-1.88.88-.13-.07-.27-.1-.44-.1v-.44c.22-.28.52-1.24.88-2.88-.09-.12-.16-.48-.22-1.11.14-.51.22-.95.22-1.32v-2.1c0-.07.04-.11.11-.11l-.11-.22v-1.55c0-.16.04-.31.11-.44-.29-.38-.44-1.04-.44-1.98,0-.3.07-.85.22-1.66,0-.05-.04-.27-.11-.66,0-.5.15-1.38.44-2.65v-.22c-.27,0-.53-.26-.77-.77l.1-.55c0-.07-.03-.11-.1-.11l.33-1.87c0-.28-.11-.83-.33-1.66v-1c0-.47-.22-.91-.67-1.32v-.55c.05,0,.72-.11,1.99-.34.29.5.44.8.44.88h.22c.05-.51.16-.77.33-.77.23.07.34.15.34.22,1.24-.07,1.94-.22,2.1-.44h.44v.44c-.24,0-.39.59-.44,1.77,0,.18.04,1.14.11,2.87-.07.96-.11,1.74-.11,2.32-.29.11-.44.22-.44.33v.22c.29.24.44.53.44.88,2-1.82,3.25-3.19,3.76-4.09-.07-.96-.11-1.73-.11-2.32v-1l-.55-.77v-.33h.11c.74.03,1.11.1,1.11.22.59-.14.88-.25.88-.33.75.15,1.26.22,1.54.22,0-.18.37-.37,1.11-.55h.1c.17,0,.31.04.44.11.13-.07.28-.11.44-.11h.34v.11c-.52.7-.78,1.62-.78,2.75v.78c0,.16-.03.31-.1.44.07.29.18.55.33.77v.33s-.07.15-.23.34l.34,1.65c0,.29-.55.66-1.66,1.1-1.1,1.15-1.65,1.78-1.65,1.88.18,0,.81.41,1.88,1.22l1.44.55v.44c0,.53-.15,1.23-.44,2.1.14.46.22,1.15.22,2.1s-.07,1.44-.22,1.44c.14.33.22.7.22,1.1-.13.88-.24,1.32-.33,1.32l.11.22v2.54c0,.56.22,1.15.66,1.77v.11c-.12,0-.26.07-.44.23l-.55-.11c-1.35.14-2.27.44-2.75.88h-.34c-.07,0-.1-.04-.1-.11-.27.15-.57.22-.89.22h-.1Z"/>
    <path class="cls-1" d="m78.75,25.18c-.13,0-.35.07-.67.23,0-.18-.07-.37-.22-.55.18-.5.37-.87.55-1.11l-.11-.22v-.77c0-.07.04-.11.11-.11l-.11-.22v-2.54l-.11-.55c.11,0,.29-.22.55-.66v-.23c-.32-.17-.55-.76-.67-1.77v-.33l.11-.55c0-2.75-.59-5.22-1.77-7.4-.51-2.19-.99-3.59-1.44-4.19-.25,0-.55-.88-.88-2.65-.05,0-.19-.22-.44-.67v-.44h.77c.36.29.92.44,1.66.44.36-.51.84-.77,1.44-.77.13.07.27.11.44.11.14-.07.25-.11.33-.11.13.07.27.11.44.11.02-.15.1-.23.22-.23v.11c-.14.44-.25.66-.33.66l1,2.43c0,.72.29,1.56.88,2.54.07.52.18.78.33.78.66-1.58,1-2.54,1-2.88.15,0,.37-.7.67-2.1l.1-.44c-.07-.14-.1-.26-.1-.34.14-.33.29-.52.44-.55h.22l.88.55.55-.1h.22c.07,0,.11.03.11.1.58-.22.95-.33,1.11-.33h1.1c.11,0,.22.11.33.33v.23c-.4,0-.8.85-1.21,2.54-.35,0-.72,1.44-1.1,4.31-.24,0-.46.4-.67,1.21l.11.22v.11l-1.32,3.09c0,.39-.18.9-.55,1.55,0,.69-.04,1.39-.11,2.1.07.12.11.31.11.55h-.11c.29.76.44,1.16.44,1.21-.27.76-.49,1.71-.66,2.87v1c0,.46.18,1.26.55,2.42l-.11.22c.07.13.11.27.11.44-.07,0-.11.04-.11.11l-1-.11c-.18,0-1.06.22-2.65.66,0-.11-.15-.22-.44-.33Z"/>
    <path class="cls-1" d="m9.84,54.47c-.21-.22-.72-.37-1.55-.44l-1.32.23c-1.1-.12-1.65-.27-1.65-.44-.07,0-.11.03-.11.1-1.99-.15-2.98-.55-2.98-1.21-.25,0-.43-.7-.55-2.1v-.44c0-1.87.48-2.94,1.44-3.2.54-.84,1.06-1.83,1.55-2.98.24-.37.53-.55.88-.55h.44v.1c-.44,1.62-.67,2.66-.67,3.1,0,.63.18,1.37.55,2.21l-.11.22c.13.69.35,1.09.67,1.22l.22-.11h.77c.08,0,.11.04.11.11,1.03-.27,1.55-.46,1.55-.55.17-1.1.32-1.77.44-1.99,0-2.57.15-3.86.44-3.86h.11c-.44-.94-.67-1.49-.67-1.66-.17,0-.42-.15-.77-.44-.17,0-.31-.03-.44-.1-.29.07-.55.1-.78.1-.36-.22-.66-.33-.88-.33-.12.15-.78.3-1.98.44,0-.06-.59-.35-1.77-.88-.74-.64-1.11-1.04-1.11-1.21,0-.07.04-.11.11-.11-.07-.75-.22-1.26-.44-1.54,0-.36.07-1.17.22-2.43-.07-.93-.1-1.48-.1-1.65.07-.77.1-1.4.1-1.88.15,0,.44-.88.88-2.65.15,0,.22-.11.22-.34h1s.14-.07.33-.22c.4.08.7.11.88.11l.55-.34h1.32c.47,0,.99.07,1.54.22.14-.07.26-.11.34-.11.73.07,1.1.41,1.1,1,.17-.15.83-.3,1.99-.44,0,.17.29.32.88.44.73.59,1.1,1.22,1.1,1.88.13,0,.28.4.44,1.21v.44c0,.07-.03.11-.1.11.22.53.33,1.27.33,2.21v.33c-.22,1.13-.33,1.71-.33,1.77l-.44.34h-.22v-.78c-.4-.84-.8-1.54-1.21-2.1,0-.18-.4-.37-1.21-.55-.19-.88-.34-1.36-.44-1.44-.67.15-1.04.22-1.11.22,0-.1-.55-.28-1.65-.55h-.34c-.44,0-1.03.52-1.77,1.55l-.1.66c.33,0,.59.66.77,1.99l.88.22c.24-.14.46-.22.66-.22.52,0,1.37.18,2.55.55,0,.28.33.54,1,.78,0,.13.44.35,1.32.66l1.21,2.43c0,.07-.04.18-.11.33l.33,3.65c0,2.14-.18,3.2-.55,3.2l-.22.11.33,1.1c-.43,1.84-.83,2.76-1.21,2.76-.11,0-.4.37-.88,1.11-.15,0-.66.22-1.54.66h-.23Z"/>
    <path class="cls-1" d="m23.48,53.92v-.33c.37,0,.55-.33.55-1,.07,0,.15-.11.22-.33l-.33-.22.11-.55-.22-.77v-1.22c0-.16.04-.31.11-.44l-.22-1.21c.07-.13.11-.27.11-.44l-.11-1.11.11-.66c-.13-.02-.31-.39-.55-1.11,0-.27.04-.6.11-1-.07-.48-.11-.96-.11-1.43h-.1c-.27,0-.6-.04-1-.11-1.09.37-1.86.55-2.32.55h-.44c0,.36-.04.55-.11.55l.23.89c-.22.55-.33,1.02-.33,1.43l.33,1.22-.11.77c.07,1.14.18,2.03.33,2.65-.14.55-.22.89-.22,1,.41,1.69.85,2.54,1.32,2.54h.11c0,.44-.29.67-.88.67,0,.07-.11.1-.34.1,0-.29-.55-.48-1.65-.55-.13.07-.27.1-.44.1v-.1c-.76.14-1.31.29-1.65.44-1.03-.06-1.55-.17-1.55-.34.57-.53.9-1.26,1-2.21.1,0,.21-.51.33-1.54-.14-.71-.22-1.23-.22-1.55,0-.69.11-1.54.33-2.54-.2,0-.34-.22-.44-.67.08-1.3.11-2.37.11-3.2v-.22c.36-1.24.55-1.9.55-1.99v-.1c-.14,0-.25-.33-.33-1-.17,0-.28-.18-.33-.55,0-.47.15-.92.44-1.32l-.33-.67c.03-.95.11-1.43.22-1.43l.77-.67v-.11c-.07,0-.18-.03-.33-.1-.13.07-.27.1-.44.1,0-.35-.18-.75-.55-1.21v-.11c.15-1.1.22-1.88.22-2.32,0-.09-.04-.45-.11-1.1l1-.55c.68,0,1.15.15,1.44.44h1.21c.4,0,.92.04,1.55.11l.55-.33h.23l1.1.55h.11c0-.39.29-.64.88-.77l.55.11h.11c.16,0,.31-.04.44-.11.48.22,1.55.33,3.2.33.27,0,.48.18.66.55l-.11.77v.67c0,.07-.03.11-.1.11l.1.22v1.44c0,.27-.03.6-.1,1l.1.22c0,1.25-.29,1.88-.88,1.88,0,.07-.11.11-.33.11,0,.17.44.28,1.32.33v.44c-.14.53-.22.82-.22.88v.44l.22.34-.11.44c.07.39.11.61.11.66-.37,1.7-.55,2.96-.55,3.76,0,.16.04.31.11.44-.09.81-.2,1.21-.33,1.21.08.29.15,1.1.22,2.43-.14.02-.22.1-.22.22v.44c.28.33.43.67.44,1-.08.76-.11,1.2-.11,1.32.09,1.84.35,2.76.77,2.76l.55.77v.23c-.39,0-.72.03-1,.1-.39-.07-.75-.1-1.1-.1-.24.14-.46.22-.67.22h-.1c0-.22-.07-.33-.22-.33-.18,0-.73.18-1.65.55l-1-.78Zm-1.32-16.78c.07,0,.11.03.11.1.81-.29,1.21-.48,1.21-.55v-1.11c.22-.85.33-1.51.33-1.98-.25-.23-.62-.34-1.1-.34-.32,0-.66.07-1,.22-.77-.15-1.25-.22-1.44-.22-.14.32-.22.95-.22,1.88,0,.24.03.43.1.55l-.33,1.32.23.11c.3-.15.52-.22.66-.22.09.37.2.55.33.55h.11c.28-.22.61-.33,1-.33Z"/>
    <path class="cls-1" d="m34.46,53.26l-.44.33h-.66l-.22-.11.11-.66c-.2-1.18-.38-1.77-.55-1.77.08-.26.11-.41.11-.44-.07-.53-.11-.82-.11-.88l.11-.23c-.29-1.27-.51-2.81-.66-4.63.07-.14.1-.26.1-.34-.59-1.59-.88-2.69-.88-3.31l-.22-.11c.09-.59.23-.88.44-.88,0-.15-.26-.41-.78-.77l-.1-.55.1-.77c-.36-.58-.66-1.95-.88-4.09,0-.16-.22-.82-.66-1.99,0-.18-.07-.7-.22-1.55h.11l-.44-1.54.33-.44c-.1,0-.21-.11-.33-.33,0-.15.11-.23.33-.23.28.2.79.35,1.55.44l.22-.11h.34l.33.22h.88c0-.19.4-.41,1.21-.67v.11c-.14.54-.25,1.21-.33,1.99.15.31.26.79.33,1.43l-.1.22c.22.99.33,1.65.33,1.99v.44l.22.33v.77c0,.32.26.95.78,1.88v.22c-.23.29-.34.81-.34,1.55l.88,2.32c.15.29.26.44.34.44l.1-.23v-1.1c0-.28.41-1.79,1.22-4.53,0-.37.22-1.22.66-2.54-.07-.39-.11-.76-.11-1.11,0-.07.04-.11.11-.11,0-.07-.04-.1-.11-.1l.11-.55v-.34c0-.8-.11-1.68-.33-2.65h.11c.51.04,1.14.26,1.88.67,1.32-.24,1.98-.46,1.98-.67h.44c0,.18.15.36.44.55v.11c-.22.37-.37.77-.44,1.21l.11.55c0,.19-.4,1.33-1.21,3.42,0,.33-.37,2.65-1.11,6.96-.27.63-.49,1.66-.66,3.09l.1.22c-.2.56-.45,1.04-.77,1.43v2.1c0,.07-.04.1-.11.1l.11.23-.11.22c0,.07.04.11.11.11l-.44,1.99.11.22s-.04.19-.11.44l.11.55c0,1.25-.18,1.88-.55,1.88-.88.13-1.32.27-1.32.44-.28,0-.8-.29-1.55-.88Z"/>
    <path class="cls-1" d="m43.4,54.25c-.15,0-.22-.08-.22-.23v-.22c.29-.98.44-1.56.44-1.77l-.22-.55c0-.29.15-.95.44-1.99v-1.1c0-.59.04-1.3.11-2.1l-.22-.77c.07-.55.22-.96.44-1.21l-.33-.44c.07-2.25.11-3.68.11-4.31,0-.23.15-.53.44-.88v-.1c-.52-.35-.78-1.86-.78-4.53.07-.51.11-.92.11-1.22l-.11-.77c.07-.38.11-.82.11-1.32v-.23c-.17,0-.35-.15-.55-.44-.16-.44-.34-.66-.55-.66v-.44c.89-.09,1.41-.17,1.54-.22.4.07.75.11,1.06.11,1.06,0,1.59-.18,1.59-.55l1.32.11c0,.13.07.31.22.55-.37.79-.55,1.38-.55,1.77,0,.07.04.11.11.11l-.11.55v3.65c0,.17-.04.31-.11.44.07.13.11.28.11.44l-.44.55v.23c.02.14.1.22.22.22,0,.08-.03.19-.1.33,0,.06.03.28.1.67l-.1.55c0,.16.11,1.38.33,3.65-.07,1.63-.18,3.14-.33,4.53.14.27.22.56.22.88-.17.51-.28.77-.33.77.37.95.55,1.94.55,2.98-.22.08-.34.15-.34.23,0,.45.22.93.67,1.44,0,.22.04.48.11.77-.15,0-.22.07-.22.22h-.66c-.17,0-.31.04-.44.11l-.22-.11-.22.11-.78-.11-1.65.34h-.77Z"/>
    <path class="cls-1" d="m59.93,53.81c-.54.22-.87.33-1,.33-.55-.15-.85-.23-.88-.23-.24.15-.43.23-.55.23,0-.1-.11-.21-.33-.33.07-.41.1-.7.1-.88-.28-.67-.46-1.48-.55-2.43-.59-1.25-.88-2.03-.88-2.32,0-.24-.41-.94-1.22-2.1-.48-1.07-.85-1.66-1.1-1.77,0,.24-.04.43-.11.55.15.58.26,1.79.33,3.64-.18,0-.29.15-.33.44,0,.52.18,1.29.55,2.32-.06.29-.13.44-.23.44,0,.06.11.65.34,1.77-.12.23-.75.45-1.88.67h-.33c-.18,0-.52-.08-1-.23l-.55.11c-.27-.14-.57-.22-.88-.22l-.33.22c-.11,0-.22-.11-.34-.33v-.44c.27,0,.46-.59.55-1.77.08,0,.11-.04.11-.11-.05-.51-.13-.77-.22-.77l.11-.78v-3.09c.15-.53.23-.82.23-.88-.15-.24-.23-.46-.23-.66v-.11c0-.27.15-.56.44-.88,0-.19-.11-.45-.33-.77v-.55c0-.1.07-.69.22-1.77,0-.08-.03-.19-.1-.33.07-.13.1-.28.1-.44l-.1-.55c.07-.14.1-.25.1-.33l-.1-.23c0-.07.03-.11.1-.11l-.1-.55v-.78c.29-.81.44-1.25.44-1.32-.39-.25-.65-.55-.78-.88,0-.18.07-.69.22-1.54-.17-2.95-.36-4.42-.55-4.42-.1,0-.21-.11-.33-.33v-.33c0-.12.26-.27.77-.44.85.37,1.33.55,1.44.55h.55c.7-.22,1.14-.34,1.32-.34.07,0,.18.04.33.11l.67-.11c.14.02.22.1.22.22,0,.51-.07.77-.22.77,0,.59.44,1.99,1.32,4.2v.11h-.11c0,.2.33,1.19,1,2.98,0,.69.37,1.57,1.1,2.65h.22v-.44c0-.25.07-.76.22-1.55l-.11-.77h.11l-.11-.22v-1.32l.45-.67c-.26,0-.44-.4-.55-1.21h.1c0-.07-.03-.11-.1-.11.14-.77.22-1.36.22-1.77-.18-1.77-.4-2.65-.66-2.65v-.11c0-.12.22-.27.66-.44,1.99.24,3.05.46,3.2.67v.1c1.13-.41,1.76-.67,1.88-.77.14.02.22.1.22.23,0,.1-.18.39-.55.88-.06.73-.13,1.1-.22,1.1,0,.07.04.11.11.11-.07,1.47-.11,2.58-.11,3.32v1.32c0,.16-.04.31-.11.44l.22.55c0,.07-.04.11-.11.11l.11.55c0,.27-.04.6-.11,1,.07.38.11.82.11,1.32-.22.27-.33.52-.33.77.01.29.08.44.22.44l-.11,1.32v1.11c0,.22.04.33.11.33l-.11.55v3.31c0,.37.04.92.11,1.66-.1,0-.21.22-.33.66-.06,0-.17.11-.33.33.13,0,.24,1.03.33,3.1.44.18.66.48.66.88v.22c-.33,0-.55.04-.66.11-.2-.17-.75-.28-1.65-.33Z"/>
    <path class="cls-1" d="m73.73,57.79h.11l-.11-.23c0-.05.04-.27.11-.66,0-1.01-.37-1.6-1.1-1.77-.16,0-.57-.52-1.22-1.55-.57.15-1.08.37-1.54.67-.43,0-1.02-.04-1.77-.11l-.78.11-1.54-.44c-.51.14-.96.22-1.32.22-.81-.88-1.22-1.99-1.22-3.31l.11-.78c-.14-.51-.22-.95-.22-1.32.22-.53.33-.86.33-1,0-.14-.04-.22-.11-.22l.11-.55v-.55c0-.26-.04-.59-.11-.99,0-.12.18-.34.55-.67-.22,0-.45-.15-.67-.44v-.77c0-.14-.07-.51-.22-1.11.1-.51.21-.77.33-.77l-.11-.67c0-1.5.15-2.57.44-3.2-.11,0-.33-.33-.66-.99.22-.77.37-1.58.44-2.43-.07-.14-.11-.25-.11-.33h.11l-.11-.22c0-.25.04-.87.11-1.87l-.11-.78c.58-1.55,1.24-2.32,1.99-2.32.03,0,.14-.07.33-.22.53.05,1,.2,1.44.44l.22-.11c.44.15.67.26.67.33.07,0,.11-.03.11-.1.55.14.88.22.99.22,0-.29.15-.44.44-.44.51.07.92.11,1.22.11h.1v.33c.05.44.16.67.34.67h.22c.16-.66.49-1,1-1,0-.07.04-.11.11-.11h1.44c.31,0,.71-.04,1.21-.11.73,0,1.1.96,1.1,2.87-.14.24-.22.42-.22.55.14.92.22,1.54.22,1.88l-.1.22c.07.13.1.27.1.44v.33c-.29.59-.88,1.47-1.77,2.65-.84.31-1.72.9-2.65,1.78h-.22v-.44c0-.42.04-.68.11-.78-.07-.4-.11-.73-.11-1l.11-1.54c-.45-1.33-.75-1.99-.89-1.99l-.66.11h-.11c0-.22-.07-.33-.22-.33h-.11v.55c0,.14-.66.29-1.99.44v1.54c0,.17.04.31.11.44-.1.92-.25,1.48-.44,1.66.22,0,.33.15.33.44-.14.66-.22,1.17-.22,1.54,0,.34.04.71.11,1.11-.07.12-.11.3-.11.55l.11.55h-.11c.07.14.11.25.11.33-.18,1.4-.29,2.1-.34,2.1l.11.22v.44c0,.4-.18,1.07-.55,1.99l.34.55c0,.05-.04.27-.11.66,0,.44.18.74.55.88.03,0,.18-.04.44-.11.15,0,.81.08,1.98.23.61-.37,1.02-.55,1.21-.55h.34c.14-.66.22-1.14.22-1.44v-.55c-.14-.18-.22-.3-.22-.34v-.55h-.23v-.11l.34-.44c0-.1-.18-.28-.55-.55,0-.51-.22-.77-.67-.77-.24,0-.43-.04-.55-.11-.14.07-.25.11-.33.11-.88-.1-1.32-.47-1.32-1.11v-.11c1.11-.95,1.84-1.43,2.2-1.43s1.17-.52,2.45-1.55c.99-.22,1.73-.44,2.21-.66.23,0,.78.11,1.65.33v.22c-.54.14-.94.51-1.21,1.11l.11.22-.11.23c.14.24.22.46.22.66,0,.05-.07.27-.22.67,0,.28.07,1.09.22,2.43l-.1.66c.29.64.44,1.01.44,1.11-.12.59-.23.88-.34.88.07.49.15,1.63.22,3.42l-.11.23.11.22c0,.08-.04.19-.11.33.07.29.11.55.11.78,0,.07-.15.29-.44.66v.33c.02.37.09.55.22.55-.22,1.14-.33,1.77-.33,1.88l.11.22-.11.22.11.23c-.51.75-.77,1.52-.77,2.31-.35.23-.61.34-.78.34-.29-1.02-.44-1.65-.44-1.88Z"/>
    <path class="cls-1" d="m85.43,54.47c-.21-.22-.72-.37-1.55-.44l-1.32.23c-1.1-.12-1.65-.27-1.65-.44-.07,0-.11.03-.11.1-1.99-.15-2.98-.55-2.98-1.21-.25,0-.43-.7-.55-2.1v-.44c0-1.87.48-2.94,1.44-3.2.54-.84,1.06-1.83,1.55-2.98.24-.37.53-.55.88-.55h.44v.1c-.44,1.62-.67,2.66-.67,3.1,0,.63.18,1.37.55,2.21l-.11.22c.13.69.35,1.09.67,1.22l.22-.11h.77c.08,0,.11.04.11.11,1.03-.27,1.55-.46,1.55-.55.17-1.1.32-1.77.44-1.99,0-2.57.15-3.86.44-3.86h.11c-.44-.94-.67-1.49-.67-1.66-.17,0-.42-.15-.77-.44-.17,0-.31-.03-.44-.1-.29.07-.55.1-.78.1-.36-.22-.66-.33-.88-.33-.12.15-.78.3-1.98.44,0-.06-.59-.35-1.77-.88-.74-.64-1.11-1.04-1.11-1.21,0-.07.04-.11.11-.11-.07-.75-.22-1.26-.44-1.54,0-.36.07-1.17.22-2.43-.07-.93-.1-1.48-.1-1.65.07-.77.1-1.4.1-1.88.15,0,.44-.88.88-2.65.15,0,.22-.11.22-.34h1s.14-.07.33-.22c.4.08.7.11.88.11l.55-.34h1.32c.47,0,.99.07,1.54.22.14-.07.26-.11.34-.11.73.07,1.1.41,1.1,1,.17-.15.83-.3,1.99-.44,0,.17.29.32.88.44.73.59,1.1,1.22,1.1,1.88.13,0,.28.4.44,1.21v.44c0,.07-.03.11-.1.11.22.53.33,1.27.33,2.21v.33c-.22,1.13-.33,1.71-.33,1.77l-.44.34h-.22v-.78c-.4-.84-.8-1.54-1.21-2.1,0-.18-.4-.37-1.21-.55-.19-.88-.34-1.36-.44-1.44-.67.15-1.04.22-1.11.22,0-.1-.55-.28-1.65-.55h-.34c-.44,0-1.03.52-1.77,1.55l-.1.66c.33,0,.59.66.77,1.99l.88.22c.24-.14.46-.22.66-.22.52,0,1.37.18,2.55.55,0,.28.33.54,1,.78,0,.13.44.35,1.32.66l1.21,2.43c0,.07-.04.18-.11.33l.33,3.65c0,2.14-.18,3.2-.55,3.2l-.22.11.33,1.1c-.43,1.84-.83,2.76-1.21,2.76-.11,0-.4.37-.88,1.11-.15,0-.66.22-1.54.66h-.23Z"/>
  </g>
</svg>